# xmcd CD database file
#
# Track frame offsets:
#	150
#	9478
#	20211
#	32810
#	43834
#	58751
#	76610
#	92191
#	110358
#	120819
#	140928
#	153796
#	169950
#	187245
#	212838
#	332969
#
# Disc length: 4440 seconds
#
# Revision: 1
# Processed by: cddbd v1.5.1PL2 Copyright (c) Steve Scherf et al.
# Submitted via: CDex 1.51
#
DISCID=e1115610
DTITLE=Beth Orton - Comfort of Strangers
DYEAR=2006
DGENRE=Pop
TTITLE0=Worms
TTITLE1=Countenance
TTITLE2=Heartland Truckstop
TTITLE3=Rectify
TTITLE4=Comfort Of Strangers
TTITLE5=Shadow Of A Doubt
TTITLE6=Conceived
TTITLE7=Absinthe
TTITLE8=A Place Aside
TTITLE9=Safe In Your Arms
TTITLE10=Shopping Trolley
TTITLE11=Feral Children
TTITLE12=Heart Of Soul
TTITLE13=Pieces Of Sky
TTITLE14=Data
TTITLE15=Data
EXTD=YEAR: 2006
EXTT0=
EXTT1=
EXTT2=
EXTT3=
EXTT4=
EXTT5=
EXTT6=
EXTT7=
EXTT8=
EXTT9=
EXTT10=
EXTT11=
EXTT12=
EXTT13=
EXTT14=
EXTT15=
PLAYORDER=
